<?xml version="1.0" encoding="UTF-8"?>
<svg width="750" height="500" version="1.1" xmlns="http://www.w3.org/2000/svg">
 <rect width="750" height="500" fill="#ad1519"/>
 <rect y="125" width="750" height="250" fill="#fabd00"/>
 <g transform="matrix(.2091873 0 0 .22203612 154.81963 148.88973)">
  <path d="m454.24938 334.024c-51.27282-0.067-97.61535-6.145-132.89274-15.505 35.27739-9.374 81.61992-15.103 132.89274-15.204 51.26308 0.1 97.85198 5.83 133.13034 15.204-35.27836 9.36-81.86726 15.438-133.13034 15.505" fill="#b50027" stroke-width=".986807"/>
  <g transform="matrix(.97378721 0 0 1 11.927959 0)" stroke="#000000">
   <path d="m335.649 219.274c0-5.408 4.622-9.781 10.313-9.781 5.667 0 10.308 4.373 10.308 9.78 0 5.39-4.622 9.763-10.308 9.763-5.69 0-10.313-4.373-10.313-9.762z" fill="none" stroke-width=".243"/>
   <path d="m451.967 134.945c31.61 0 59.737 4.68 78.06 11.942 10.485 4.732 24.563 8.229 39.973 10.289 11.735 1.57 22.887 1.892 32.587 1.15 12.971-0.255 31.734 3.544 50.502 11.807 15.534 6.893 28.5 15.27 37.113 23.38l-7.453 6.639-2.155 18.849-20.45 23.414-10.217 8.67-24.204 19.375-12.363 1.011-3.76 10.696-156.6-18.346-157.077 18.346-3.765-10.696-12.382-1.01-24.2-19.376-10.222-8.67-20.439-23.415-2.126-18.849-7.492-6.639c8.651-8.11 21.623-16.487 37.119-23.38 18.768-8.263 37.535-12.062 50.497-11.808 9.7 0.743 20.856 0.422 32.592-1.15 15.415-2.06 29.507-5.556 39.973-10.288 18.342-7.262 44.898-11.942 76.489-11.942z" fill="#b50027" stroke-width="1.232"/>
   <g fill="#9f7e00" stroke-width="1.857">
    <path d="m564.539 181.605-9.896-16.167c10.734-6.571 18.101-17.991 18.101-31 0-1.471-0.086-2.904-0.263-4.326-1.02-20.626-26.188-37.67-58.066-37.67-16.588 0-31.523 4.527-42.057 11.794-0.287-3.195-0.536-5.93-1.02-8.838 11.597-6.758 26.633-10.825 43.077-10.825 36.678 0 65.376 20.841 66.784 45.524a50.34 50.34 0 0 1 0.196 4.34c0 13.163-6.006 25.019-15.515 33.262l5.26 8.618zm-221.636 0 9.897-16.167c-10.735-6.571-18.102-17.991-18.102-31 0-1.471 0.086-2.904 0.263-4.326 1.02-20.626 26.188-37.67 58.066-37.67 16.588 0 31.524 4.527 42.057 11.794 0.288-3.195 0.537-5.93 1.02-8.838-11.596-6.758-26.633-10.825-43.077-10.825-36.678 0-65.375 20.841-66.784 45.524a50.34 50.34 0 0 0-0.196 4.34c0 13.163 6.007 25.019 15.515 33.262l-5.26 8.618z"/>
    <path d="m591.014 140.468c0-16.114-10.548-30.489-26.542-40.016 9.863 7.937 15.85 18.192 16.727 29.645 0.124 1.437 0.196 2.889 0.196 4.34 0 13.163-6.006 25.019-15.515 33.262l4.833 8.8c12.522-9.34 20.3-22.044 20.3-36.031z"/>
    <path d="m226.272 192.818c-7.013-7.855-11.31-18.005-11.31-29.104a42.605 42.605 0 0 1 4.35-18.8c10.13-20.847 41.918-36.017 79.697-36.017 10.294 0 20.143 1.116 29.239 3.19-2.017 2.199-3.602 4.613-5.145 7.046-7.558-1.47-15.654-2.266-24.094-2.266-34.584 0-63.517 13.45-71.9 31.624a34.993 34.993 0 0 0-3.482 15.223c0 11.046 5.174 20.947 13.274 27.706l-12.522 20.453-6.706-5.336 8.599-13.7v-0.018zm227.548-112.369c8.383 0 15.592 5.542 17.307 12.976 1.121 6.572 1.82 14.054 1.979 22.024 0.015 0.83-0.058 1.639-0.058 2.453 0.025 0.944 0.201 1.96 0.215 2.922 0.288 16.722 2.678 31.485 6.084 40.524l-25.54 24.429-25.815-24.43c3.425-9.038 5.796-23.801 6.117-40.523 0.02-0.963 0.201-1.978 0.201-2.922 0-0.814-0.057-1.624-0.038-2.453 0.124-7.97 0.838-15.452 1.964-22.024 1.696-7.434 9.202-12.976 17.57-12.976z"/>
   </g>
   <g fill="none" stroke-width="1.082">
    <path transform="matrix(5.36858,0,0,5.59248,-561.098,-947.043)" d="m193.384 229.571v-6.522m-1.772 6.522v-6.522" stroke-width=".108"/>
    <g stroke-width=".27">
     <path transform="matrix(5.36858,0,0,5.59248,-561.098,-947.043)" d="m189.94 229.571v-6.522m-1.658 6.522v-6.522m-1.477 6.522v-6.522m-2.818 6.171-0.039-5.937m1.375 6.015v-6.21"/>
    </g>
    <path transform="matrix(5.36858,0,0,5.59248,-561.098,-947.043)" d="m181.386 228.953v-5.47m1.318 5.626-0.039-5.821m-4.768 5.352v-4.805m1.145 4.883v-5.039m1.179 5.196v-5.236" stroke-width=".541"/>
    <g stroke-width=".811">
     <path transform="matrix(5.36858,0,0,5.59248,-561.098,-947.043)" d="m176.673 228.601v-4.649m-1.14 4.745v-5.087m-1.223 4.939v-4.744m-2.504 4.333-0.039-4.014m1.322 4.26v-4.434"/>
    </g>
    <path transform="matrix(5.36858,0,0,5.59248,-561.098,-947.043)" d="m170.522 228.045v-3.624m-1.175 3.665v-3.482m-1.283 2.81v-2.615m-1.319 2.639v-2.387m-1.396 2.075v-1.774"/>
    <path transform="matrix(5.36858,0,0,5.59248,-561.098,-947.043)" d="m200.432 229.22v-5.976m-3.001 6.171 0.039-6.327m-2.226 6.405v-6.444" stroke-width=".108"/>
   </g>
   <g stroke-width="1.859">
    <g fill="#9f7e00">
     <path d="m454.37 293.734c-58.342 0.087-110.608 6.995-147.903 18.213-2.64 0.795-4.046 3.075-3.998 5.59-0.158 2.587 1.267 5.087 3.998 5.916 37.295 11.233 89.56 18.14 147.904 18.227 58.334-0.087 110.56-6.994 147.861-18.227 2.711-0.829 4.12-3.33 3.977-5.916 0.048-2.515-1.337-4.795-3.977-5.59-37.3-11.218-89.527-18.126-147.861-18.213zm-0.142 9.58c52.644 0.101 100.486 5.831 136.713 15.206-36.227 9.36-84.07 15.436-136.713 15.503-52.652-0.067-100.243-6.144-136.47-15.503 36.227-9.375 83.818-15.105 136.47-15.206z"/>
     <path d="m453.964 293.687c-59.043 0.115-112.035 7.516-149.336 19.002 3.1-1.47 2.821-5.288-1.035-15.218-4.656-12.013-11.913-11.486-11.913-11.486 41.238-12.181 98.643-19.802 162.533-19.884 63.915 0.082 121.78 7.703 163.022 19.884 0 0-7.262-0.527-11.918 11.486-3.851 9.93-4.139 13.748-1.035 15.218-37.295-11.486-91.28-18.887-150.318-19.002"/>
     <path d="m454.213 266.116c-63.89 0.1-121.295 7.702-162.533 19.902-2.75 0.824-5.657-0.253-6.548-2.854-0.89-2.606 0.59-5.595 3.339-6.438 41.415-12.703 100.3-20.679 165.757-20.813 65.47 0.12 124.58 8.11 166 20.813 2.75 0.843 4.23 3.832 3.34 6.438-0.896 2.6-3.804 3.678-6.549 2.854-41.242-12.2-98.891-19.802-162.806-19.902"/>
    </g>
    <path d="m408.64 280.63c0-2.721 2.333-4.934 5.207-4.934 2.893 0 5.23 2.213 5.23 4.934 0 2.716-2.337 4.948-5.23 4.948-2.874 0-5.207-2.232-5.207-4.948" fill="#ffffff"/>
    <path d="m454.343 284.514h-15.635c-2.884 0-5.274-2.198-5.274-4.933 0-2.721 2.337-4.949 5.212-4.949h31.6c2.874 0 5.216 2.228 5.216 4.949 0 2.735-2.39 4.933-5.288 4.933z" fill="#b50027"/>
    <path d="m375.804 288.82-11.247 1.304c-2.87 0.335-5.528-1.59-5.887-4.278-0.35-2.716 1.686-5.183 4.555-5.504l11.31-1.317 11.506-1.322c2.85-0.335 5.456 1.557 5.815 4.277 0.335 2.702-1.749 5.183-4.603 5.504z" fill="#006f46"/>
    <path d="m330.102 289.803c0-2.721 2.337-4.934 5.207-4.934 2.893 0 5.226 2.213 5.226 4.934 0 2.735-2.333 4.948-5.226 4.948-2.87 0-5.207-2.213-5.207-4.948" fill="#ffffff"/>
    <path d="m296.38 297.29 4.756-6.089 16.018 2.026-12.809 9.346-7.094-2.73-2.03-0.923z" fill="#b50027"/>
    <path d="m532.896 288.82 11.237 1.304c2.85 0.335 5.533-1.59 5.887-4.278 0.321-2.716-1.696-5.183-4.55-5.504l-11.305-1.317-11.506-1.322c-2.874-0.335-5.475 1.557-5.815 4.277-0.36 2.702 1.748 5.183 4.598 5.504z" fill="#006f46"/>
    <path d="m489.622 280.63c0-2.721 2.337-4.934 5.211-4.934 2.889 0 5.226 2.213 5.226 4.934 0 2.716-2.337 4.948-5.226 4.948-2.874 0-5.211-2.232-5.211-4.948m78.538 9.173c0-2.721 2.338-4.934 5.212-4.934 2.888 0 5.226 2.213 5.226 4.934 0 2.735-2.338 4.948-5.226 4.948-2.874 0-5.212-2.213-5.212-4.948" fill="#ffffff"/>
    <path d="m613.36 298.789-5.796-7.588-16.018 2.026 12.808 9.346 8.623-2.774 0.903-0.294z" fill="#b50027"/>
   </g>
   <path d="m453.82 88.405c4.355 0 8.024 2.773 8.92 6.62 1.054 6.217 1.729 13.316 1.873 20.812 0 0.781-0.04 1.557-0.04 2.314 0 0.93 0.163 1.859 0.182 2.807 0.268 15.793 2.534 29.713 5.777 38.277l-16.838 15.946-16.856-15.946c3.214-8.545 5.48-22.484 5.762-38.277 0.02-0.948 0.182-1.878 0.197-2.807 0-0.757-0.053-1.533-0.053-2.314 0.144-7.496 0.82-14.595 1.887-20.812 0.877-3.847 4.853-6.62 9.188-6.62z" fill="#9f7e00" stroke-width="1.857"/>
  </g>
  <path d="m445.013 164.49c0-4.728 3.9604-8.545 8.82544-8.545s8.82543 3.817 8.82543 8.545c0 4.747-3.96039 8.584-8.82543 8.584s-8.82544-3.837-8.82544-8.584" fill="#ffffff" stroke-width=".986807"/>
  <g transform="matrix(.97378721 0 0 1 11.927959 0)" stroke="#000000">
   <path d="m444.743 164.49c0-4.728 4.067-8.545 9.063-8.545s9.063 3.817 9.063 8.545c0 4.747-4.067 8.584-9.063 8.584s-9.063-3.837-9.063-8.584z" fill="none" stroke-width="1.857"/>
   <g stroke-width="1.859">
    <g fill="#ffffff">
     <path d="m444.743 147.682c0-4.728 4.067-8.584 9.063-8.584s9.063 3.856 9.063 8.584c0 4.732-4.067 8.564-9.063 8.564s-9.063-3.832-9.063-8.564m1.821-18.078c0-3.784 3.247-6.84 7.242-6.84 3.976 0 7.224 3.056 7.224 6.84s-3.248 6.845-7.224 6.845c-3.995 0-7.242-3.06-7.242-6.845m2.031-16.3c0-2.716 2.337-4.93 5.211-4.93 2.889 0 5.207 2.214 5.207 4.93 0 2.74-2.318 4.952-5.207 4.952-2.874 0-5.211-2.213-5.211-4.952m1.035-14.256c0-2.198 1.867-3.951 4.176-3.951 2.3 0 4.172 1.753 4.172 3.951 0 2.18-1.873 3.952-4.172 3.952-2.309 0-4.177-1.772-4.177-3.952"/>
    </g>
    <path d="m454.573 216.079 5.887 1.082c-0.949 2.381-1.145 4.982-1.145 7.722 0 12.21 10.49 22.144 23.404 22.144 10.366 0 19.194-6.418 22.226-15.285 0.34 0.235 2.233-8.009 3.21-7.908 0.819 0.086 0.733 8.565 1.034 8.411 1.5 11.166 11.703 18.72 23.19 18.72 12.894 0 23.351-9.882 23.351-22.116 0-0.91-0.053-1.82-0.177-2.701l7.329-7.262 3.937 9.254c-1.566 2.908-2.189 6.17-2.189 9.667 0 11.673 9.988 21.114 22.317 21.114 7.755 0 14.567-3.731 18.567-9.393l4.69-5.964-0.036 7.315c0 7.348 3.104 13.939 10.275 15.103 0 0 8.234 0.507 19.141-8.057 10.917-8.565 16.929-15.659 16.929-15.659l0.938 8.58s-9.058 14.005-18.92 19.715c-5.39 3.142-13.576 6.433-20.085 5.37-6.889-1.116-11.794-6.64-14.323-13.005-4.91 2.888-10.706 4.574-16.914 4.574-13.34 0-25.33-7.314-30.072-18.327-6.136 6.62-14.682 10.692-24.702 10.692-10.654 0-20.411-4.795-26.528-12.162-6.012 5.475-14.184 8.852-23.189 8.852-11.793 0-22.312-5.777-28.276-14.495-5.954 8.718-16.464 14.495-28.238 14.495-9 0-17.191-3.377-23.208-8.852-6.093 7.367-15.87 12.162-26.518 12.162-10.025 0-18.57-4.072-24.712-10.692-4.737 11.013-16.722 18.327-30.067 18.327-6.213 0-11.985-1.686-16.89-4.574-2.553 6.366-7.458 11.889-14.327 13.005-6.51 1.063-14.696-2.228-20.1-5.37-9.867-5.71-18.916-19.716-18.916-19.716l0.949-8.579s6.016 7.094 16.914 15.659c10.916 8.579 19.14 8.057 19.14 8.057 7.172-1.164 10.27-7.755 10.27-15.103l-0.033-7.315 4.69 5.964c3.995 5.662 10.83 9.393 18.571 9.393 12.325 0 22.312-9.441 22.312-21.114 0-3.497-0.627-6.76-2.194-9.667l3.938-9.254 7.338 7.262c-0.11 0.881-0.177 1.791-0.177 2.701 0 12.234 10.443 22.116 23.347 22.116 11.506 0 21.69-7.554 23.189-18.72 0.32 0.154 0.235-8.325 1.049-8.411 0.968-0.1 2.874 8.143 3.195 7.908 3.051 8.867 11.865 15.285 22.264 15.285 12.91 0 23.366-9.934 23.366-22.144 0-2.74-0.162-5.34-1.125-7.722l6.102-1.082" fill="#9f7e00"/>
    <g fill="#ffffff">
     <path d="m615.18 245.27c1.35-3.967 0.143-7.89-2.711-8.747-2.85-0.896-6.28 1.605-7.63 5.556-1.361 3.952-0.144 7.856 2.71 8.752 2.85 0.857 6.275-1.624 7.63-5.562m-101.689-19.696c0.533-4.139-1.446-7.75-4.425-8.09-2.98-0.355-5.835 2.701-6.366 6.825-0.537 4.12 1.442 7.755 4.421 8.11 2.98 0.335 5.834-2.721 6.37-6.845m-118.07 0c-0.532-4.139 1.465-7.75 4.426-8.09 2.98-0.355 5.834 2.701 6.37 6.825 0.513 4.12-1.446 7.755-4.426 8.11-2.979 0.335-5.834-2.721-6.37-6.845m-101.67 19.697c-1.356-3.967-0.144-7.89 2.71-8.747 2.856-0.896 6.262 1.605 7.617 5.556 1.337 3.952 0.125 7.856-2.711 8.752-2.855 0.857-6.26-1.624-7.616-5.562"/>
    </g>
    <g fill="#9f7e00">
     <path d="m340.056 225.98c-1.605-1.27-2.817-3.042-3.21-5.135-0.397-2.079 0.053-4.139 1.107-5.83 0 0-4.216-2.126-8.728-3.31-3.425-0.895-9.45-0.929-11.27-0.962-1.821-0.053-5.457-0.134-5.457-0.134s0.302 0.828 1.337 2.634c1.245 2.18 2.352 3.545 2.352 3.545-6.031 1.389-11.166 5.355-14.414 9.954 4.714 3.257 10.974 5.235 17.125 4.608 0 0-0.537 1.643-0.925 4.124-0.32 2.045-0.302 2.888-0.302 2.888s3.387-1.25 5.083-1.873c1.695-0.627 7.348-2.586 10.255-4.545 3.799-2.601 7.047-5.95 7.047-5.95m13.522-2.28c1.05-1.686 1.552-3.75 1.16-5.844-0.394-2.093-1.538-3.865-3.143-5.135 0 0 3.176-3.362 6.974-5.944 2.894-1.96 8.56-3.937 10.256-4.546 1.696-0.622 5.087-1.892 5.087-1.892s0.015 0.862-0.306 2.908c-0.388 2.467-0.93 4.105-0.93 4.105 6.16-0.642 12.43 1.418 17.144 4.694-3.243 4.58-8.416 8.478-14.428 9.868 0 0 1.088 1.365 2.352 3.544 1.035 1.825 1.341 2.635 1.341 2.635s-3.64-0.082-5.46-0.115c-1.82-0.034-7.847-0.053-11.271-0.963-4.513-1.202-8.776-3.296-8.776-3.296"/>
     <path d="m348.881 191.841s0.613-1.216 3.387-2.821c2.783-1.571 5.178-1.523 5.178-1.523s-0.805 4.612-1.217 6.27c-0.412 1.619-0.426 6.572-1.494 11.031-1.073 4.46-3.013 8.024-3.013 8.024a9.48 9.48 0 0 0-7.497-1.979c-2.778 0.475-5.03 2.113-6.332 4.273 0 0-3.104-2.716-5.73-6.553-2.6-3.837-4.401-8.464-5.364-9.867-0.982-1.418-3.41-5.504-3.41-5.504s2.232-0.829 5.422-0.24c3.195 0.595 4.196 1.557 4.196 1.557-0.714-6.097 1.322-12.468 4.905-17.095 5.03 3.19 9.432 8.497 10.97 14.427z"/>
    </g>
    <path d="m335.649 219.274c0-5.408 4.622-9.781 10.313-9.781 5.667 0 10.308 4.373 10.308 9.78 0 5.39-4.622 9.763-10.308 9.763-5.69 0-10.313-4.373-10.313-9.762" fill="#b50027"/>
    <g fill="#9f7e00">
     <path d="m463.44 179.914s0.89-1.25 4.334-2.5c3.44-1.25 6.079-0.762 6.079-0.762s-1.835 5.02-2.64 6.773c-0.8 1.758-1.834 7.267-3.98 12.014-2.084 4.78-4.991 8.377-4.991 8.377-1.893-2.16-4.743-3.563-7.957-3.563-3.195 0-6.045 1.403-7.937 3.563 0 0-2.908-3.597-5.01-8.377-2.127-4.747-3.176-10.256-3.962-12.014-0.8-1.753-2.658-6.773-2.658-6.773s2.658-0.489 6.083 0.762c3.44 1.25 4.354 2.5 4.354 2.5 0.48-6.912 4.086-13.632 9.025-18.126 4.958 4.494 8.775 11.214 9.26 18.126z"/>
     <path d="m446.492 216.333c-1.533-1.705-2.515-3.918-2.515-6.318 0-2.381 0.91-4.608 2.443-6.285 0 0-4.244-3.176-9.025-5.336-3.621-1.657-10.346-2.802-12.363-3.176-2.031-0.388-6.064-1.15-6.064-1.15s0.163 0.963 0.943 3.176c0.949 2.688 1.893 4.412 1.893 4.412-6.99 0.422-13.576 3.9-18.14 8.411 4.564 4.474 11.132 7.87 18.14 8.33 0 0-0.944 1.706-1.893 4.407-0.78 2.18-0.943 3.157-0.943 3.157s4.033-0.743 6.064-1.112c2.017-0.407 8.742-1.537 12.363-3.209 4.78-2.165 9.097-5.288 9.097-5.288m15.538-0.019c1.534-1.705 2.51-3.918 2.51-6.318 0-2.381-0.905-4.608-2.442-6.285 0 0 4.249-3.176 9.03-5.336 3.635-1.657 10.36-2.802 12.377-3.176 1.997-0.388 6.026-1.15 6.026-1.15s-0.14 0.963-0.944 3.176c-0.948 2.688-1.873 4.412-1.873 4.412 6.994 0.422 13.57 3.9 18.121 8.411-4.55 4.474-11.113 7.87-18.12 8.33 0 0 0.924 1.706 1.872 4.407 0.786 2.18 0.944 3.157 0.944 3.157s-4.01-0.743-6.026-1.112c-2.017-0.407-8.742-1.537-12.378-3.209-4.78-2.165-9.096-5.288-9.096-5.288m97.996-24.511s-0.613-1.216-3.387-2.821c-2.783-1.571-5.178-1.523-5.178-1.523s0.805 4.612 1.217 6.27c0.412 1.619 0.426 6.572 1.494 11.031 1.073 4.46 3.013 8.024 3.013 8.024a9.48 9.48 0 0 1 7.497-1.979c2.778 0.475 5.03 2.113 6.332 4.273 0 0 3.104-2.716 5.73-6.553 2.6-3.837 4.401-8.464 5.364-9.867 0.982-1.418 3.41-5.504 3.41-5.504s-2.232-0.829-5.422-0.24c-3.195 0.595-4.196 1.557-4.196 1.557 0.714-6.097-1.322-12.468-4.905-17.095-5.03 3.19-9.432 8.497-10.97 14.427z"/>
     <path d="m568.874 225.98c1.59-1.27 2.821-3.042 3.19-5.135a8.134 8.134 0 0 0-1.082-5.83s4.191-2.126 8.698-3.31c3.43-0.895 9.475-0.929 11.272-0.962 1.825-0.053 5.46-0.134 5.46-0.134s-0.287 0.828-1.331 2.634c-1.255 2.18-2.357 3.545-2.357 3.545 6.026 1.389 11.16 5.355 14.413 9.954-4.694 3.257-10.955 5.235-17.124 4.608 0 0 0.55 1.643 0.929 4.124 0.297 2.045 0.283 2.888 0.283 2.888s-3.392-1.25-5.064-1.873c-1.695-0.627-7.352-2.586-10.26-4.545-3.78-2.601-7.027-5.95-7.027-5.95m-13.537-2.28c-1.054-1.686-1.533-3.75-1.164-5.844 0.398-2.093 1.557-3.865 3.157-5.135 0 0-3.19-3.362-6.989-5.944-2.888-1.96-8.565-3.937-10.256-4.546-1.695-0.622-5.067-1.892-5.067-1.892s-0.015 0.862 0.301 2.908c0.379 2.467 0.915 4.105 0.915 4.105-6.155-0.642-12.435 1.418-17.13 4.694 3.253 4.58 8.407 8.478 14.419 9.868 0 0-1.088 1.365-2.343 3.544-1.049 1.825-1.331 2.635-1.331 2.635s3.616-0.082 5.437-0.115c1.8-0.034 7.87-0.053 11.27-0.963 4.499-1.202 8.762-3.296 8.762-3.296"/>
    </g>
    <path d="m552.645 219.274c0-5.408 4.613-9.781 10.308-9.781 5.71 0 10.328 4.373 10.328 9.78 0 5.39-4.618 9.763-10.328 9.763-5.695 0-10.308-4.373-10.308-9.762m115.317 21.689c-2.429-2.567-7.458-2.026-11.218 1.183-3.765 3.19-4.858 7.89-2.429 10.438 2.429 2.567 7.458 2.012 11.218-1.178 3.765-3.229 4.858-7.909 2.43-10.443" fill="#b50027"/>
    <path d="m653.319 247.18c0.517-1.757 1.695-3.549 3.425-5.034 3.76-3.209 8.79-3.75 11.218-1.183 0.302 0.34 0.642 0.795 0.838 1.198 0 0 5.226-9.916 11.415-13.206 6.194-3.33 16.665-2.486 16.665-2.486 0-7.602-6.227-13.748-14.255-13.748-4.71 0-9.169 1.96-11.794 5.27l-1.082-5.102s-6.457 1.283-9.422 8.665c-2.941 7.4 0.268 18.092 0.268 18.092s-1.605-4.594-4.028-7.655c-2.41-3.036-8.599-6.366-11.827-7.884-3.229-1.504-6.529-3.77-6.529-3.77s-0.144 0.829-0.269 2.874c-0.124 2.448 0.072 3.952 0.072 3.952-5.92-0.776-12.827 0.187-18.212 2.28 2.3 4.527 6.687 8.785 12.43 10.965 0 0-2.069 1.705-3.96 3.578-1.567 1.59-2.065 2.332-2.065 2.332s4.047 0.575 6.083 0.863c2.012 0.268 8.737 1.331 12.752 1.063 2.96-0.187 6.28-0.675 8.277-1.063m-397.722-1e-3c-0.518-1.757-1.687-3.549-3.425-5.034-3.765-3.209-8.78-3.75-11.224-1.183-0.32 0.34-0.641 0.795-0.838 1.198 0 0-5.245-9.916-11.434-13.206-6.17-3.33-16.64-2.486-16.64-2.486 0-7.602 6.226-13.748 14.25-13.748 4.728 0 9.154 1.96 11.808 5.27l1.073-5.102s6.457 1.283 9.417 8.665c2.955 7.4-0.268 18.092-0.268 18.092s1.604-4.594 4.033-7.655c2.424-3.036 8.612-6.366 11.836-7.884 3.22-1.504 6.534-3.77 6.534-3.77s0.124 0.829 0.254 2.874c0.124 2.448-0.072 3.952-0.072 3.952 5.901-0.776 12.823 0.187 18.212 2.28-2.304 4.527-6.677 8.785-12.435 10.965 0 0 2.07 1.705 3.956 3.578 1.576 1.59 2.089 2.332 2.089 2.332s-4.067 0.575-6.079 0.863c-2.04 0.268-8.742 1.331-12.756 1.063-2.96-0.187-6.28-0.675-8.291-1.063" fill="#9f7e00"/>
    <g fill="#b50027">
     <path d="m240.948 240.963c2.443-2.567 7.459-2.026 11.224 1.183 3.779 3.19 4.847 7.89 2.423 10.438-2.423 2.567-7.458 2.012-11.218-1.178-3.765-3.229-4.852-7.909-2.429-10.443m203.029-30.948c0-5.403 4.618-9.762 10.308-9.762s10.328 4.359 10.328 9.762c0 5.408-4.618 9.781-10.328 9.781-5.69 0-10.308-4.373-10.308-9.781"/>
    </g>
   </g>
   <g stroke-width="1.231">
    <path d="m432.826 61.58c0-11.05 9.44-19.97 21.066-19.97 11.63 0 21.067 8.92 21.067 19.97 0 11.013-9.436 19.932-21.067 19.932-11.625 0-21.066-8.92-21.066-19.931" fill="#0044ad"/>
    <path d="m448.375 5.616v10.777h-11.526v10.927h11.526v31.435h-14.52c-0.171 1.025-1.048 1.773-1.048 2.844 0 2.753 0.58 5.4 1.647 7.784 0.029 0.064 0.12 0.086 0.15 0.15h38.62c0.03-0.064 0.12-0.086 0.15-0.15 1.09033-2.449923 1.65122-5.102412 1.646-7.784 0-1.067-0.88-1.821-1.048-2.844h-14.072v-31.435h11.526v-10.927h-11.526v-10.777z" fill="#9f7e00"/>
   </g>
  </g>
  <path d="m685.32616 210.829c0-2.74 2.27574-4.92 5.07441-4.92 2.81327 0 5.07051 2.18 5.07051 4.92 0 2.735-2.25724 4.929-5.07051 4.929-2.79867 0-5.07441-2.194-5.07441-4.929" fill="#ffffff" stroke-width=".986807"/>
  <path d="m685.32616 210.829c0-2.74 2.27574-4.92 5.07441-4.92 2.81327 0 5.07051 2.18 5.07051 4.92 0 2.735-2.25724 4.929-5.07051 4.929-2.79867 0-5.07441-2.194-5.07441-4.929z" fill="none" stroke="#000000" stroke-width="1.84463"/>
  <path d="m692.27121 198.193c0-2.72 2.26211-4.92 5.07538-4.92 2.7938 0 5.06953 2.2 5.06953 4.92 0 2.754-2.27573 4.948-5.06953 4.948-2.81327 0-5.07538-2.194-5.07538-4.948" fill="#ffffff" stroke-width=".986807"/>
  <path d="m692.27121 198.193c0-2.72 2.26211-4.92 5.07538-4.92 2.7938 0 5.06953 2.2 5.06953 4.92 0 2.754-2.27573 4.948-5.06953 4.948-2.81327 0-5.07538-2.194-5.07538-4.948z" fill="none" stroke="#000000" stroke-width="1.84463"/>
  <path d="m696.88989 183.564c0-2.72 2.2806-4.934 5.09777-4.934 2.79477 0 5.07051 2.213 5.07051 4.934 0 2.735-2.27672 4.948-5.07051 4.948-2.81717 0-5.09875-2.213-5.09875-4.948" fill="#ffffff" stroke-width=".986807"/>
  <path d="m696.88989 183.564c0-2.72 2.2806-4.934 5.09777-4.934 2.79477 0 5.07051 2.213 5.07051 4.934 0 2.735-2.27672 4.948-5.07051 4.948-2.81717 0-5.09875-2.213-5.09875-4.948z" fill="none" stroke="#000000" stroke-width="1.84463"/>
  <path d="m697.48585 167.867c0-2.735 2.27184-4.929 5.06563-4.929 2.79867 0 5.07538 2.194 5.07538 4.929 0 2.74-2.27671 4.934-5.07538 4.934-2.79379 0-5.06563-2.194-5.06563-4.934" fill="#ffffff" stroke-width=".986807"/>
  <path d="m697.48585 167.867c0-2.735 2.27184-4.929 5.06563-4.929 2.79867 0 5.07538 2.194 5.07538 4.929 0 2.74-2.27671 4.934-5.07538 4.934-2.79379 0-5.06563-2.194-5.06563-4.934z" fill="none" stroke="#000000" stroke-width="1.84463"/>
  <path d="m693.71728 152.414c0-2.72 2.27672-4.92 5.06565-4.92 2.81717 0 5.0929 2.2 5.0929 4.92 0 2.75-2.27573 4.948-5.0929 4.948-2.78893 0-5.06565-2.198-5.06565-4.948" fill="#ffffff" stroke-width=".986807"/>
  <path d="m693.71728 152.414c0-2.72 2.27672-4.92 5.06565-4.92 2.81717 0 5.0929 2.2 5.0929 4.92 0 2.75-2.27573 4.948-5.0929 4.948-2.78893 0-5.06565-2.198-5.06565-4.948z" fill="none" stroke="#000000" stroke-width="1.84463"/>
  <path d="m685.89972 138.39c0-2.736 2.27574-4.93 5.07441-4.93 2.81327 0 5.08025 2.194 5.08025 4.929 0 2.74-2.26698 4.953-5.08025 4.953-2.79867 0-5.07441-2.213-5.07441-4.953" fill="#ffffff" stroke-width=".986807"/>
  <path d="m685.89972 138.39c0-2.736 2.27574-4.93 5.07441-4.93 2.81327 0 5.08025 2.194 5.08025 4.929 0 2.74-2.26698 4.953-5.08025 4.953-2.79867 0-5.07441-2.213-5.07441-4.953z" fill="none" stroke="#000000" stroke-width="1.84463"/>
  <path d="m675.47923 126.869c0-2.735 2.27087-4.948 5.06953-4.948 2.81815 0 5.08902 2.213 5.08902 4.948 0 2.72-2.27087 4.934-5.08902 4.934-2.79866 0-5.06953-2.213-5.06953-4.934" fill="#ffffff" stroke-width=".986807"/>
  <path d="m675.47923 126.869c0-2.735 2.27087-4.948 5.06953-4.948 2.81815 0 5.08902 2.213 5.08902 4.948 0 2.72-2.27087 4.934-5.08902 4.934-2.79866 0-5.06953-2.213-5.06953-4.934z" fill="none" stroke="#000000" stroke-width="1.84463"/>
  <path d="m663.37018 117.294c0-2.74 2.27574-4.953 5.09291-4.953 2.79477 0 5.07051 2.213 5.07051 4.953 0 2.716-2.27574 4.929-5.07051 4.929-2.81717 0-5.09291-2.213-5.09291-4.93" fill="#ffffff" stroke-width=".986807"/>
  <path d="m663.37018 117.294c0-2.74 2.27574-4.953 5.09291-4.953 2.79477 0 5.07051 2.213 5.07051 4.953 0 2.716-2.27574 4.929-5.07051 4.929-2.81717 0-5.09291-2.213-5.09291-4.93z" fill="none" stroke="#000000" stroke-width="1.84463"/>
  <path d="m648.90458 109.452c0-2.735 2.27184-4.914 5.0705-4.914 2.81328 0 5.08901 2.18 5.08901 4.914 0 2.74-2.27573 4.953-5.08901 4.953-2.79866 0-5.0705-2.213-5.0705-4.953" fill="#ffffff" stroke-width=".986807"/>
  <path d="m648.90458 109.452c0-2.735 2.27184-4.914 5.0705-4.914 2.81328 0 5.08901 2.18 5.08901 4.914 0 2.74-2.27573 4.953-5.08901 4.953-2.79866 0-5.0705-2.213-5.0705-4.953z" fill="none" stroke="#000000" stroke-width="1.84463"/>
  <path d="m633.89462 103.862c0-2.72 2.27574-4.933 5.08901-4.933 2.79477 0 5.07538 2.213 5.07538 4.933 0 2.735-2.28159 4.948-5.07538 4.948-2.81327 0-5.08901-2.213-5.08901-4.948" fill="#ffffff" stroke-width=".986807"/>
  <path d="m675.24843 192.818c6.8282-7.855 11.01257-18.005 11.01257-29.104a41.488204 42.605 0 0 0-4.23597-18.8c-9.86447-20.847-40.81921-36.017-77.60793-36.017-10.02416 0-19.61499 1.116-28.47256 3.19 1.96413 2.199 3.50758 4.613 5.01014 7.046 7.35988-1.47 15.24366-2.266 23.46242-2.266 33.67746 0 61.85205 13.45 70.01531 31.624a34.075736 34.993 0 0 1 3.39072 15.223c0 11.046-5.03837 20.947-12.92605 27.706l12.19376 20.453 6.53022-5.336-8.37263-13.7v-0.018z" fill="#9f7e00" stroke="#000000" stroke-width="1.84463"/>
  <path d="m633.89462 103.862c0-2.72 2.27574-4.933 5.08901-4.933 2.79477 0 5.07538 2.213 5.07538 4.933 0 2.735-2.28159 4.948-5.07538 4.948-2.81327 0-5.08901-2.213-5.08901-4.948z" fill="none" stroke="#000000" stroke-width="1.84463"/>
  <path d="m617.11626 100.787c0-2.72 2.27185-4.948 5.07051-4.948 2.81717 0 5.08415 2.227 5.08415 4.948 0 2.72-2.26698 4.934-5.08415 4.934-2.79866 0-5.07051-2.213-5.07051-4.934" fill="#ffffff" stroke-width=".986807"/>
  <path d="m617.11626 100.787c0-2.72 2.27185-4.948 5.07051-4.948 2.81717 0 5.08415 2.227 5.08415 4.948 0 2.72-2.26698 4.934-5.08415 4.934-2.79866 0-5.07051-2.213-5.07051-4.934z" fill="none" stroke="#000000" stroke-width="1.84463"/>
  <path d="m601.18608 99.925c0-2.72 2.27672-4.915 5.08999-4.915 2.79866 0 5.07439 2.194 5.07439 4.915 0 2.74-2.27573 4.953-5.07439 4.953-2.81327 0-5.08902-2.213-5.08902-4.953" fill="#ffffff" stroke-width=".986807"/>
  <path d="m601.18608 99.925c0-2.72 2.27672-4.915 5.08999-4.915 2.79866 0 5.07439 2.194 5.07439 4.915 0 2.74-2.27573 4.953-5.07439 4.953-2.81327 0-5.08902-2.213-5.08902-4.953z" fill="none" stroke="#000000" stroke-width="1.84463"/>
  <path d="m585.55095 100.485c0-2.72 2.28159-4.933 5.08901-4.933 2.81814 0 5.07538 2.213 5.07538 4.933 0 2.735-2.25724 4.948-5.07538 4.948-2.80742 0-5.08901-2.213-5.08901-4.948" fill="#ffffff" stroke-width=".986807"/>
  <path d="m585.55095 100.485c0-2.72 2.28159-4.933 5.08901-4.933 2.81814 0 5.07538 2.213 5.07538 4.933 0 2.735-2.25724 4.948-5.07538 4.948-2.80742 0-5.08901-2.213-5.08901-4.948z" fill="none" stroke="#000000" stroke-width="1.84463"/>
  <path d="m569.93919 100.485c0-2.72 2.27185-4.933 5.07051-4.933 2.7938 0 5.06954 2.213 5.06954 4.933 0 2.735-2.27574 4.948-5.06954 4.948-2.79866 0-5.07051-2.213-5.07051-4.948" fill="#ffffff" stroke-width=".986807"/>
</svg>
